<svg xmlns="http://www.w3.org/2000/svg" version="1.1" xmlns:xlink="http://www.w3.org/1999/xlink" xmlns:svgjs="http://svgjs.dev/svgjs" width="73" height="73"><svg width="73" height="73" viewBox="0 0 73 73" fill="none" xmlns="http://www.w3.org/2000/svg">
<path d="M0 12C0 5.37259 5.37258 0 12 0H61C67.6274 0 73 5.37258 73 12V61C73 67.6274 67.6274 73 61 73H12C5.37259 73 0 67.6274 0 61V12Z" fill="#8BCDCC"></path>
<path d="M55.2604 33.3762C56.6786 32.9791 57.5064 31.5075 57.1093 30.0893C56.7122 28.6711 55.2406 27.8433 53.8223 28.2404C52.4041 28.6375 51.5764 30.1091 51.9735 31.5273C52.3706 32.9455 53.8422 33.7733 55.2604 33.3762ZM39.256 26.7859C40.6742 26.3888 41.502 24.9172 41.1049 23.499C40.7078 22.0807 39.2362 21.253 37.8179 21.6501C36.3997 22.0472 35.572 23.5188 35.9691 24.937C36.3662 26.3552 37.8378 27.183 39.256 26.7859ZM54.7317 30.346L38.7273 23.7556L38.3466 24.6803L54.351 31.2706L54.7317 30.346Z" fill="#18104E"></path>
<path d="M54.9017 28.166C53.4425 27.967 52.0982 28.9887 51.8992 30.4479C51.7002 31.9072 52.7219 33.2515 54.1811 33.4504C55.6404 33.6494 56.9846 32.6278 57.1836 31.1685C57.3826 29.7093 56.361 28.365 54.9017 28.166ZM53.6471 37.5807C52.1878 37.3817 50.8436 38.4034 50.6446 39.8626C50.4456 41.3219 51.4672 42.6662 52.9265 42.8652C54.3857 43.0641 55.73 42.0425 55.929 40.5832C56.128 39.124 55.1063 37.7797 53.6471 37.5807ZM54.0458 30.7422L52.7912 40.1569L53.7824 40.289L55.037 30.8743L54.0458 30.7422Z" fill="#18104E"></path>
<path d="M51.2232 38.5344C50.2906 39.6743 50.4586 41.3543 51.5984 42.2869C52.7383 43.2195 54.4183 43.0515 55.3509 41.9117C56.2836 40.7718 56.1155 39.0918 54.9757 38.1592C53.8358 37.2266 52.1558 37.3946 51.2232 38.5344ZM57.8132 41.6726C56.8806 42.8124 57.0486 44.4925 58.1885 45.4251C59.3283 46.3577 61.0084 46.1897 61.941 45.0498C62.8736 43.91 62.7056 42.2299 61.5657 41.2973C60.4259 40.3647 58.7458 40.5327 57.8132 41.6726ZM53.0721 40.6745L59.6621 43.8126L60.0921 42.9098L53.502 39.7716L53.0721 40.6745Z" fill="#18104E"></path>
<path d="M53.1978 33.1116C54.47 33.8537 56.1028 33.424 56.8449 32.1519C57.587 30.8798 57.1573 29.2469 55.8851 28.5048C54.613 27.7627 52.9802 28.1924 52.2381 29.4646C51.496 30.7367 51.9257 32.3696 53.1978 33.1116ZM53.5122 27.149C54.7844 27.8911 56.4172 27.4614 57.1593 26.1892C57.9014 24.9171 57.4717 23.2843 56.1995 22.5422C54.9274 21.8001 53.2946 22.2298 52.5525 23.5019C51.8104 24.7741 52.2401 26.4069 53.5122 27.149ZM55.0408 30.8346L55.3552 24.8719L54.3566 24.8193L54.0422 30.7819L55.0408 30.8346Z" fill="#18104E"></path>
<path d="M52.288 25.5646C52.6851 26.9828 54.1567 27.8106 55.575 27.4135C56.9932 27.0164 57.821 25.5448 57.4239 24.1266C57.0268 22.7084 55.5551 21.8806 54.1369 22.2777C52.7187 22.6748 51.8909 24.1464 52.288 25.5646ZM50.0913 17.719C50.4884 19.1372 51.96 19.965 53.3782 19.5679C54.7964 19.1708 55.6242 17.6992 55.2271 16.281C54.83 14.8628 53.3584 14.035 51.9402 14.4321C50.522 14.8292 49.6942 16.3008 50.0913 17.719ZM55.3374 24.7108L53.1407 16.8652L52.1777 17.1348L54.3745 24.9804L55.3374 24.7108Z" fill="#18104E"></path>
<path d="M55.6177 38.928C56.3329 40.2154 55.8691 41.8389 54.5817 42.5541C53.2942 43.2693 51.6708 42.8055 50.9555 41.5181C50.2403 40.2306 50.7041 38.6072 51.9916 37.8919C53.279 37.1767 54.9025 37.6406 55.6177 38.928ZM47.4583 44.5768C48.1735 45.8642 47.7097 47.4877 46.4222 48.2029C45.1348 48.9182 43.5113 48.4543 42.7961 47.1669C42.0809 45.8795 42.5447 44.256 43.8322 43.5408C45.1196 42.8255 46.743 43.2894 47.4583 44.5768ZM53.5712 40.6341L45.4118 46.2829L44.8426 45.4608L53.002 39.8119L53.5712 40.6341Z" fill="#18104E"></path>
<path d="M36.8337 19.8551C38.2372 19.4089 39.0133 17.9094 38.5671 16.5059C38.121 15.1023 36.6215 14.3262 35.2179 14.7724C33.8144 15.2186 33.0383 16.7181 33.4844 18.1216C33.9306 19.5252 35.4301 20.3013 36.8337 19.8551ZM38.7524 24.2405L36.5023 17.1623L35.5493 17.4652L37.7994 24.5434L38.7524 24.2405Z" fill="#18104E"></path>
<path d="M51.9424 31.4024C52.2705 32.8382 53.7005 33.736 55.1362 33.4079C56.5719 33.0797 57.4698 31.6498 57.1416 30.214C56.8134 28.7783 55.3835 27.8804 53.9478 28.2086C52.5121 28.5368 51.6142 29.9667 51.9424 31.4024ZM62.2986 29.5195C62.6267 30.9552 64.0567 31.8531 65.4924 31.5249C66.9281 31.1967 67.826 29.7668 67.4978 28.3311C67.1696 26.8954 65.7397 25.9975 64.304 26.3257C62.8683 26.6538 61.9704 28.0838 62.2986 29.5195ZM54.6314 31.3002L64.9876 29.4172L64.8087 28.4333L54.4525 30.3163L54.6314 31.3002Z" fill="#DEF700"></path>
<path d="M56.818 29.7203C56.1347 28.4157 54.5231 27.9121 53.2185 28.5954C51.9138 29.2788 51.4102 30.8904 52.0936 32.195C52.777 33.4996 54.3885 34.0032 55.6932 33.3199C56.9978 32.6365 57.5014 31.0249 56.818 29.7203ZM40.1473 36.2922L34.6154 35.9834L36.8083 41.3243L40.5271 37.2172L40.1473 36.2922ZM54.2659 30.4951L39.6847 36.4821L40.0645 37.4072L54.6457 31.4202L54.2659 30.4951Z" fill="#DEF700"></path>
<path d="M21.2406 47.7395C22.4455 46.8925 22.7355 45.2291 21.8885 44.0243C21.0415 42.8195 19.3781 42.5295 18.1733 43.3765C16.9685 44.2235 16.6784 45.8869 17.5255 47.0917C18.3725 48.2965 20.0358 48.5865 21.2406 47.7395ZM12.7675 41.7769C13.9723 40.9299 14.2624 39.2666 13.4153 38.0618C12.5683 36.857 10.905 36.5669 9.70017 37.4139C8.49535 38.261 8.20531 39.9243 9.05233 41.1291C9.89935 42.3339 11.5627 42.624 12.7675 41.7769ZM19.9947 45.1491L11.5216 39.1865L10.9461 40.0043L19.4192 45.9669L19.9947 45.1491Z" fill="#18104E"></path>
<path d="M19.166 42.9467C17.7238 43.2454 16.7969 44.6566 17.0956 46.0988C17.3942 47.5409 18.8055 48.4679 20.2476 48.1692C21.6898 47.8705 22.6167 46.4593 22.3181 45.0172C22.0194 43.575 20.6082 42.648 19.166 42.9467ZM26.0701 47.0261C24.628 47.3248 23.701 48.736 23.9997 50.1782C24.2984 51.6203 25.7096 52.5473 27.1518 52.2486C28.5939 51.9499 29.5209 50.5387 29.2222 49.0965C28.9235 47.6544 27.5123 46.7274 26.0701 47.0261ZM19.4525 45.9884L26.3566 50.0678L26.8653 49.2069L19.9612 45.1275L19.4525 45.9884Z" fill="#18104E"></path>
<path d="M24.1024 48.733C23.603 50.1185 24.3213 51.6465 25.7068 52.146C27.0923 52.6454 28.6203 51.9271 29.1197 50.5416C29.6192 49.1562 28.9009 47.6281 27.5154 47.1287C26.1299 46.6292 24.6019 47.3475 24.1024 48.733ZM26.458 54.5485C25.9585 55.9339 26.6768 57.462 28.0623 57.9614C29.4478 58.4609 30.9758 57.7426 31.4753 56.3571C31.9747 54.9716 31.2564 53.4436 29.8709 52.9441C28.4854 52.4447 26.9574 53.163 26.458 54.5485ZM26.1477 49.825L28.5032 55.6405L29.43 55.2651L27.0745 49.4496L26.1477 49.825Z" fill="#18104E"></path>
<path d="M19.2078 48.1775C20.6545 48.4532 22.0508 47.5039 22.3265 46.0572C22.6023 44.6105 21.653 43.2142 20.2063 42.9385C18.7595 42.6627 17.3632 43.612 17.0875 45.0587C16.8118 46.5055 17.7611 47.9018 19.2078 48.1775ZM24.229 39.0767C25.6757 39.3524 27.072 38.4031 27.3477 36.9564C27.6235 35.5097 26.6742 34.1134 25.2275 33.8376C23.7807 33.5619 22.3844 34.5112 22.1087 35.9579C21.833 37.4046 22.7823 38.801 24.229 39.0767ZM20.1448 45.7995L25.166 36.6987L24.2904 36.2156L19.2692 45.3164L20.1448 45.7995Z" fill="#18104E"></path>
<path d="M22.5468 37.9908C23.3938 39.1956 25.0572 39.4857 26.262 38.6387C27.4668 37.7917 27.7568 36.1283 26.9098 34.9235C26.0628 33.7187 24.3995 33.4286 23.1946 34.2757C21.9898 35.1227 21.6998 36.786 22.5468 37.9908ZM13.4454 33.5971C14.2925 34.802 15.9558 35.092 17.1606 34.245C18.3654 33.398 18.6555 31.7346 17.8085 30.5298C16.9614 29.325 15.2981 29.0349 14.0933 29.882C12.8885 30.729 12.5984 32.3923 13.4454 33.5971ZM24.9457 36.0069L15.8443 31.6132L15.4096 32.5138L24.5109 36.9074L24.9457 36.0069Z" fill="#18104E"></path>
<path d="M9.21327 42.9944C7.9707 42.2038 6.32249 42.5701 5.5319 43.8127C4.7413 45.0553 5.10769 46.7035 6.35026 47.4941C7.59282 48.2847 9.24103 47.9183 10.0316 46.6757C10.8222 45.4332 10.4558 43.785 9.21327 42.9944ZM10.8074 39.3347L7.35513 44.9835L8.20839 45.505L11.6607 39.8562L10.8074 39.3347Z" fill="#18104E"></path>
<path d="M17.5004 46.8218C18.2883 48.0661 19.9357 48.4361 21.18 47.6483C22.4243 46.8604 22.7943 45.213 22.0064 43.9687C21.2186 42.7244 19.5712 42.3544 18.3269 43.1423C17.0826 43.9301 16.7125 45.5775 17.5004 46.8218ZM30.1534 41.5441L35.6881 41.7967L33.4411 36.4784L29.7642 40.6229L30.1534 41.5441ZM19.948 45.8558L30.614 41.3495L30.2248 40.4283L19.5588 44.9347L19.948 45.8558Z" fill="#DEF700"></path>
<path d="M21.5219 43.6042C20.4428 42.6018 18.7555 42.6641 17.7532 43.7431C16.7509 44.8222 16.8131 46.5095 17.8922 47.5118C18.9713 48.5141 20.6586 48.4519 21.6609 47.3728C22.6632 46.2938 22.6009 44.6065 21.5219 43.6042ZM14.9316 50.1941C13.8525 49.1918 12.1652 49.254 11.1629 50.3331C10.1606 51.4121 10.2228 53.0994 11.3019 54.1017C12.381 55.104 14.0683 55.0418 15.0706 53.9627C16.0729 52.8837 16.0106 51.1964 14.9316 50.1941ZM19.3535 45.2044L12.7632 51.7943L13.4703 52.5015L20.0606 45.9115L19.3535 45.2044Z" fill="#DEF700"></path>
</svg><style>@media (prefers-color-scheme: light) { :root { filter: none; } }
@media (prefers-color-scheme: dark) { :root { filter: none; } }
</style></svg>